inDegrees=yes
name=ik_S49_A05_T01
DataType=double
version=3
OpenSimVersion=4.3-2021-08-27-4bc7ad9
endheader
time	pelvis_tilt	pelvis_list	pelvis_rotation	pelvis_tx	pelvis_ty	pelvis_tz	hip_flexion_r	hip_adduction_r	hip_rotation_r	knee_angle_r	knee_angle_r_beta	ankle_angle_r	subtalar_angle_r	mtp_angle_r	hip_flexion_l	hip_adduction_l	hip_rotation_l	knee_angle_l	knee_angle_l_beta	ankle_angle_l	subtalar_angle_l	mtp_angle_l	lumbar_extension	lumbar_bending	lumbar_rotation	arm_flex_r	arm_add_r	arm_rot_r	elbow_flex_r	pro_sup_r	wrist_flex_r	wrist_dev_r	arm_flex_l	arm_add_l	arm_rot_l	elbow_flex_l	pro_sup_l	wrist_flex_l	wrist_dev_l
0	0	0	0	0	0.9399999999999999	0	0	0	0	0	0	0	0	0	0	0	0	0	0	0	0	0	0	0	0	0	0	0	0	89.99999999963507	0	0	0	0	0	0	89.99999999869995	0	0
0.02	-4.965940353222278	-2.562585151879187	25.48025009538584	0	0.9399999999999999	0	3.296883918882573	-1.530123134137839	-1.108482020450317	5.0864080621384	0.0887745677842994	0	0	0	3.296883918882573	-1.530123134137839	-1.108482020450317	5.0864080621384	0.0887745677842994	0	0	0	-4.075078481383719	-0.9173407206757348	6.54165306107465	36.8085103300298	-6.259988062326665	1.113221214086309	39.71402108009803	124.629720952408	0	0	46.35710037526071	-4.559539406101913	17.50213790610703	17.1787961207447	122.8158549333297	0	0
0.04	-4.965888967265217	-2.560846010776254	25.53850971285441	0	0.9399999999999999	0	3.680033598420412	-1.702408487774078	-1.25043196752721	5.399766502486057	0.09424370430728027	0	0	0	3.680033598420412	-1.702408487774078	-1.25043196752721	5.399766502486057	0.09424370430728027	0	0	0	-4.086290115768075	-0.9097072144105318	6.491150854885673	36.81914904936355	-6.25188548146005	1.135859207667359	39.71819906531763	124.5982335445556	0	0	46.37884919411094	-4.53121560068944	17.50036954462464	17.22154021614986	122.8205548469855	0	0
0.06	-4.873217872670657	-4.260158329147308	29.18133462955181	0	0.9399999999999999	0	42.33164945165113	-14.38564908237194	-12.5151497067892	51.37690587234572	0.8966961669596423	0	0	0	42.33164945165113	-14.38564908237194	-12.5151497067892	51.37690587234572	0.8966961669596423	0	0	0	-3.38835776460531	0.8691231949740835	2.953481009870034	36.82159097785189	-6.241726614118095	1.157642514266034	39.72718892647577	124.5605752106624	0	0	46.38481062411731	-4.541447642466943	17.49969017710887	17.20134653491549	122.8046589776404	0	0
0.08	-4.866933133601482	-4.252614767031262	29.18776987898675	0	0.9399999999999999	0	42.33718496711546	-14.37377405380978	-12.50763644356451	51.38253747390473	0.8967944569490074	0	0	0	42.33718496711546	-14.37377405380978	-12.50763644356451	51.38253747390473	0.8967944569490074	0	0	0	-3.384167428414313	0.8694248100491794	2.945864529725278	36.80608218058345	-6.254893809117073	1.186411470493365	39.75487754216446	124.5263934809646	0	0	46.37143799749639	-4.539122814474434	17.5096147487643	17.1773828598933	122.7735200785549	0	0
0.1	-4.866593030355948	-4.251031017878553	29.18899703261555	0	0.9399999999999999	0	42.34118792344839	-14.36160330176141	-12.50143494990385	51.38649487932479	0.8968635267034238	0	0	0	42.34118792344839	-14.36160330176141	-12.50143494990385	51.38649487932479	0.8968635267034238	0	0	0	-3.386376305988728	0.8680356309273131	2.943901244701234	36.79776105713101	-6.267348619228207	1.180000758960826	39.76074622787942	124.517773496538	0	0	46.37368946356639	-4.535321492862398	17.49804180460238	17.17955229518556	122.771481740734	0	0
0.12	-4.863770374261204	-4.25075033612514	29.19921346890928	0	0.9399999999999999	0	42.34344057350861	-14.3542208663621	-12.49786475533096	51.38871870612557	0.8969023398030914	0	0	0	42.34344057350861	-14.3542208663621	-12.49786475533096	51.38871870612557	0.8969023398030914	0	0	0	-3.385618783040233	0.8654666528353484	2.942652729353178	36.80598175869043	-6.260360165367395	1.160709029905039	39.76229929488851	124.5145910035569	0	0	46.37194629594572	-4.525851019800832	17.4816930768157	17.17142012976854	122.7710468798657	0	0
0.14	-4.865684428215261	-4.249802365864041	29.200513038035	0	0.9399999999999999	0	42.34734567770038	-14.33228465755841	-12.4897830138152	51.39230746920788	0.8969649755349518	0	0	0	42.34734567770038	-14.33228465755841	-12.4897830138152	51.39230746920788	0.8969649755349518	0	0	0	-3.389866118490199	0.8649625797497545	2.939541905876521	36.80496160431377	-6.283183756881979	1.154417058974826	39.80097076985619	124.4829062712653	0	0	46.37806665781419	-4.547646319293293	17.46346982390062	17.27442127961047	122.7434747336417	0	0
0.16	-4.857721842882816	-4.236723756027828	29.20891631971918	0	0.9399999999999999	0	42.37153618771101	-14.20998148470718	-12.44221361489306	51.41473339339857	0.8973563817498821	0	0	0	42.37153618771101	-14.20998148470718	-12.44221361489306	51.41473339339857	0.8973563817498821	0	0	0	-3.395756969997326	0.8541032537150409	2.934282732375348	36.81540842617627	-6.265667001619081	1.131195487885673	39.70959484128078	124.5761651331765	0	0	46.3633796670541	-4.541369568453654	17.46454628974778	17.2410266728769	122.8155491531728	0	0
0.18	-4.859091682146999	-4.235059093302652	29.20586494540581	0	0.9399999999999999	0	42.37416978471727	-14.20379283626894	-12.43854009295698	51.41740547730569	0.8974030184119507	0	0	0	42.37416978471727	-14.20379283626894	-12.43854009295698	51.41740547730569	0.8974030184119507	0	0	0	-3.397988410676786	0.8540041060903369	2.938467966678014	36.80632549520112	-6.258322988797754	1.162453062697342	39.72694704454836	124.5657299432562	0	0	46.38714328860019	-4.525021933622979	17.51099957664789	17.19252580813389	122.7843330847024	0	0
0.2	-4.860184758797331	-4.232886799953865	29.20726351172376	0	0.9399999999999999	0	42.37683883638493	-14.19408866775444	-12.43411432703242	51.42000934604525	0.8974484644947458	0	0	0	42.37683883638493	-14.19408866775444	-12.43411432703242	51.42000934604525	0.8974484644947458	0	0	0	-3.399931874547733	0.8545358554842793	2.938904272109507	36.80287759685848	-6.257464715057282	1.168056033568175	39.73640556860909	124.5531833651145	0	0	46.38732039128268	-4.527844838285696	17.51425048914314	17.19286560126385	122.7714980768146	0	0
0.22	-4.858561423269267	-4.232275327934595	29.21088065228076	0	0.9399999999999999	0	42.37970554538078	-14.18276280720421	-12.42915644898753	51.42277315132391	0.8974967019967425	0	0	0	42.37970554538078	-14.18276280720421	-12.42915644898753	51.42277315132391	0.8974967019967425	0	0	0	-3.400613485410322	0.8526756449841424	2.935558117776973	36.81366678921036	-6.256746882540355	1.178659945542186	39.75349889846463	124.534845068807	0	0	46.37552665702071	-4.535163679996379	17.51151686599566	17.20448337111856	122.7590338348929	0	0
0.24	-4.860456005551971	-4.229197540339298	29.20779442378538	0	0.9399999999999999	0	42.38486887046994	-14.15965313908949	-12.4196636843796	51.42767165217915	0.8975821969650782	0	0	0	42.38486887046994	-14.15965313908949	-12.4196636843796	51.42767165217915	0.8975821969650782	0	0	0	-3.404916978941943	0.8530836547843877	2.931899615322514	36.81852883352753	-6.273797259481698	1.197283435861944	39.80300621401479	124.4880693250549	0	0	46.36156669084619	-4.551809310710942	17.50673327311788	17.29267903303342	122.7200019012179	0	0
0.26	-4.858384641306547	-4.231598481024021	29.20396942329852	0	0.9399999999999999	0	42.38469439343967	-14.1625873359921	-12.42044703030176	51.42759964602256	0.897580940220564	0	0	0	42.38469439343967	-14.1625873359921	-12.42044703030176	51.42759964602256	0.897580940220564	0	0	0	-3.404548378923107	0.8505289230540949	2.926154923825007	36.82198016617281	-6.255997334090848	1.184626281425643	39.74892437210839	124.52513901696	0	0	46.39068933934006	-4.547738045852778	17.47027620369997	17.19272561992125	122.774696587425	0	0
0.28	-4.86677727034453	-4.232215191087345	29.20352146355486	0	0.9399999999999999	0	42.38740317307423	-14.14450373628884	-12.41422682015216	51.42999769936711	0.8976227941470648	0	0	0	42.38740317307423	-14.14450373628884	-12.41422682015216	51.42999769936711	0.8976227941470648	0	0	0	-3.414175684920233	0.8524828329671615	2.92504444401651	36.83399198601561	-6.268881967821697	1.193564874030056	39.78735635027982	124.4969947241155	0	0	46.38332989763284	-4.557377797994445	17.46840315462272	17.29069689397803	122.7481640908985	0	0
0.3	-4.866934683113584	-4.235808010802326	29.19514852969077	0	0.9399999999999999	0	42.38769094626453	-14.14368213627189	-12.41379957525247	51.43029140892634	0.8976279203459181	0	0	0	42.38769094626453	-14.14368213627189	-12.41379957525247	51.43029140892634	0.8976279203459181	0	0	0	-3.416261117343857	0.8491801164244274	2.925532513502172	36.83653479844739	-6.249552159053255	1.20800316071226	39.75704996247328	124.5229531551706	0	0	46.39337107875207	-4.549463944597451	17.48696005754536	17.21953234043472	122.7677953837861	0	0
0.32	-4.867889815858522	-4.234914019665547	29.19087192380907	0	0.9399999999999999	0	42.39099838543964	-14.13356550253113	-12.40871416277269	51.43357666557852	0.8976852588912716	0	0	0	42.39099838543964	-14.13356550253113	-12.40871416277269	51.43357666557852	0.8976852588912716	0	0	0	-3.419297737880345	0.8481593616677263	2.925148778150907	36.83514237044337	-6.252799826310978	1.221370387624538	39.77513973837139	124.5090347225834	0	0	46.40295115450397	-4.545846506981944	17.50986991846768	17.20235598453355	122.7431861820094	0	0
0.34	-4.866707631407439	-4.236689466461603	29.20068369286776	0	0.9399999999999999	0	42.39482741491399	-14.12204547164767	-12.40286829430293	51.43739292041114	0.897751865103196	0	0	0	42.39482741491399	-14.12204547164767	-12.40286829430293	51.43739292041114	0.897751865103196	0	0	0	-3.42217683325456	0.8434217420965971	2.92447074474787	36.83866782454671	-6.253058909522497	1.214193059019689	39.78853556585641	124.5030490853738	0	0	46.40607198483892	-4.548647877212981	17.5307873549649	17.20004555656973	122.7214868488829	0	0
0.36	-4.868315934412069	-4.238223019984989	29.20778693694294	0	0.9399999999999999	0	42.39802284317636	-14.10762684405962	-12.39697923109352	51.44042457255378	0.8978047774148602	0	0	0	42.39802284317636	-14.10762684405962	-12.39697923109352	51.44042457255378	0.8978047774148602	0	0	0	-3.426787824650328	0.8408194697429149	2.923326702811341	36.83166754985571	-6.257472144561603	1.22939913131179	39.81363628952125	124.4851231337202	0	0	46.40548737833715	-4.552769342547784	17.52297065364874	17.23464638985375	122.7108980762675	0	0
